<svg width="282" height="63" viewBox="0 0 282 63" fill="none" xmlns="http://www.w3.org/2000/svg">
<path d="M8 47C6.72917 47 5.625 46.7292 4.6875 46.1875C3.77083 45.6458 3.01042 44.9167 2.40625 44C1.80208 43.0625 1.35417 41.9896 1.0625 40.7812C0.770833 39.5729 0.625 38.2917 0.625 36.9375C0.625 35.75 0.739583 34.5417 0.96875 33.3125C1.19792 32.0833 1.52083 30.8958 1.9375 29.75C2.375 28.5833 2.91667 27.5 3.5625 26.5C4.20833 25.4792 4.94792 24.5938 5.78125 23.8438C6.61458 23.0938 7.54167 22.5 8.5625 22.0625C9.60417 21.625 10.7188 21.4062 11.9062 21.4062C13.2604 21.4062 14.4062 21.7083 15.3438 22.3125C16.3021 22.9167 17.0729 23.6562 17.6562 24.5312C17.6771 20.5938 17.875 17.1146 18.25 14.0938C18.625 11.0729 19.1458 8.54167 19.8125 6.5C20.5 4.45833 21.3125 2.91667 22.25 1.875C23.1875 0.8125 24.2188 0.28125 25.3438 0.28125C25.7396 0.28125 26.0938 0.333333 26.4062 0.4375C26.7396 0.520833 27.0104 0.6875 27.2188 0.9375C27.4479 1.1875 27.6146 1.53125 27.7188 1.96875C27.8438 2.38542 27.9062 2.92708 27.9062 3.59375C27.9062 4.96875 27.7708 6.55208 27.5 8.34375C27.2292 10.1146 26.8438 12.0521 26.3438 14.1562C25.8438 16.2396 25.2292 18.4688 24.5 20.8438C23.7917 23.1979 23 25.6458 22.125 28.1875C22.1458 30.4167 22.1771 32.3438 22.2188 33.9688C22.2604 35.5938 22.3125 36.9688 22.375 38.0938C22.4583 39.2188 22.5521 40.1354 22.6562 40.8438C22.7812 41.5521 22.9167 42.1042 23.0625 42.5C23.2292 42.875 23.4167 43.1354 23.625 43.2812C23.8542 43.4062 24.1042 43.4688 24.375 43.4688C24.8542 43.4688 25.3333 43.2604 25.8125 42.8438C26.3125 42.4062 26.8438 41.7708 27.4062 40.9375C27.9688 40.0833 28.5729 39.0417 29.2188 37.8125C29.8854 36.5833 30.6146 35.1667 31.4062 33.5625L31.75 32.9062L33.0312 33.875L32.6875 34.5312C31.4792 36.9688 30.4167 38.9896 29.5 40.5938C28.5833 42.1771 27.7396 43.4479 26.9688 44.4062C26.2188 45.3646 25.5 46.0417 24.8125 46.4375C24.125 46.8125 23.4062 47 22.6562 47C21.9271 47 21.2917 46.8229 20.75 46.4688C20.2292 46.0938 19.7812 45.5208 19.4062 44.75C19.0312 43.9583 18.7292 42.9583 18.5 41.75C18.2708 40.5208 18.0938 39.0521 17.9688 37.3438C17.2396 38.8021 16.4896 40.125 15.7188 41.3125C14.9479 42.5 14.1458 43.5208 13.3125 44.375C12.5 45.2083 11.6458 45.8542 10.75 46.3125C9.85417 46.7708 8.9375 47 8 47ZM12.5312 23C11.3854 23 10.3854 23.3542 9.53125 24.0625C8.67708 24.75 7.96875 25.6562 7.40625 26.7812C6.84375 27.8854 6.42708 29.1354 6.15625 30.5312C5.88542 31.9271 5.75 33.3229 5.75 34.7188C5.75 35.8646 5.83333 36.9688 6 38.0312C6.1875 39.0729 6.45833 40 6.8125 40.8125C7.1875 41.625 7.63542 42.2708 8.15625 42.75C8.67708 43.2292 9.28125 43.4688 9.96875 43.4688C10.6354 43.4688 11.2812 43.3021 11.9062 42.9688C12.5521 42.6354 13.1875 42.1042 13.8125 41.375C14.4375 40.625 15.0729 39.6667 15.7188 38.5C16.3646 37.3125 17.0521 35.875 17.7812 34.1875C17.7396 33.1875 17.7083 32.125 17.6875 31C17.6667 29.8542 17.6562 28.6354 17.6562 27.3438C17.1979 25.9896 16.5 24.9271 15.5625 24.1562C14.6458 23.3854 13.6354 23 12.5312 23ZM25.6562 4.75C25.6562 3.79167 25.5417 3.125 25.3125 2.75C25.1042 2.375 24.8542 2.1875 24.5625 2.1875C24.0625 2.1875 23.6562 2.67708 23.3438 3.65625C23.0312 4.61458 22.7812 5.91667 22.5938 7.5625C22.4271 9.20833 22.3021 11.1146 22.2188 13.2812C22.1562 15.4479 22.125 17.7292 22.125 20.125V23.5625C22.7708 21.4583 23.3229 19.5625 23.7812 17.875C24.2396 16.1875 24.6042 14.6146 24.875 13.1562C25.1458 11.6979 25.3438 10.2917 25.4688 8.9375C25.5938 7.58333 25.6562 6.1875 25.6562 4.75ZM31.4688 33.5625L31.7812 32.9062C32.0938 32.2812 32.375 31.6354 32.625 30.9688C32.8958 30.3021 33.125 29.6771 33.3125 29.0938C33.5 28.4896 33.6458 27.9583 33.75 27.5C33.8542 27.0208 33.9271 26.6562 33.9688 26.4062C33.4271 26.3438 32.9062 26.2083 32.4062 26C31.9062 25.7917 31.4688 25.5104 31.0938 25.1562C30.7188 24.8021 30.4271 24.3854 30.2188 23.9062C29.9896 23.4271 29.875 22.8854 29.875 22.2812C29.875 21.8021 29.9583 21.375 30.125 21C30.2917 20.625 30.5208 20.3125 30.8125 20.0625C31.0833 19.8125 31.3958 19.625 31.75 19.5C32.0833 19.3542 32.4375 19.2812 32.8125 19.2812C33.3125 19.2812 33.75 19.3854 34.125 19.5938C34.5 19.8021 34.8125 20.0833 35.0625 20.4375C35.3125 20.7708 35.5 21.1667 35.625 21.625C35.75 22.0625 35.8125 22.5208 35.8125 23C36.3958 23 37.0208 22.9167 37.6875 22.75C38.375 22.5833 39.0625 22.4062 39.75 22.2188C40.4375 22.0104 41.1146 21.8229 41.7812 21.6562C42.4479 21.4896 43.0625 21.4062 43.625 21.4062C44.1042 21.4062 44.4896 21.5104 44.7812 21.7188C45.0729 21.9062 45.2188 22.2292 45.2188 22.6875C45.2188 23.0208 45.1146 23.5729 44.9062 24.3438C44.7188 25.1146 44.4792 26.0104 44.1875 27.0312C43.8958 28.0521 43.5729 29.1667 43.2188 30.375C42.8854 31.5625 42.5729 32.7708 42.2812 34C41.9896 35.2083 41.7396 36.3854 41.5312 37.5312C41.3438 38.6771 41.25 39.6979 41.25 40.5938C41.25 41.7188 41.375 42.4792 41.625 42.875C41.875 43.2708 42.3229 43.4688 42.9688 43.4688C43.2396 43.4688 43.5729 43.3542 43.9688 43.125C44.3854 42.875 44.8854 42.4062 45.4688 41.7188C46.0521 41.0104 46.7396 40.0104 47.5312 38.7188C48.3438 37.4062 49.2812 35.6875 50.3438 33.5625L50.6562 32.9062L51.9375 33.875L51.625 34.5312C50.375 37.0312 49.2604 39.0833 48.2812 40.6875C47.3021 42.2917 46.3958 43.5625 45.5625 44.5C44.75 45.4375 43.9792 46.0938 43.25 46.4688C42.5208 46.8229 41.7917 47 41.0625 47C39.8333 47 38.8333 46.5312 38.0625 45.5938C37.2917 44.6562 36.9062 43.2083 36.9062 41.25C36.9062 40.1875 37.0521 39.0833 37.3438 37.9375C37.6354 36.7917 38 35.6562 38.4375 34.5312C38.875 33.3854 39.3646 32.2604 39.9062 31.1562C40.4479 30.0521 40.9583 29.0104 41.4375 28.0312C41.9375 27.0312 42.3854 26.1042 42.7812 25.25C43.1771 24.3958 43.4583 23.6458 43.625 23L43.4375 22.8125C43.1042 22.8125 42.6562 22.9896 42.0938 23.3438C41.5312 23.6979 40.8958 24.1042 40.1875 24.5625C39.5 25 38.7604 25.4167 37.9688 25.8125C37.1771 26.2083 36.375 26.4479 35.5625 26.5312C35.5208 26.8229 35.4271 27.25 35.2812 27.8125C35.1562 28.375 34.9792 29 34.75 29.6875C34.5208 30.375 34.2604 31.0833 33.9688 31.8125C33.6771 32.5417 33.375 33.2292 33.0625 33.875L32.75 34.5312L31.4688 33.5625ZM33 21.0312C32.8125 21.0312 32.6562 21.0938 32.5312 21.2188C32.4062 21.3438 32.3438 21.4896 32.3438 21.6562C32.3438 21.9062 32.4062 22.125 32.5312 22.3125C32.6562 22.4792 32.8125 22.625 33 22.75C33.1875 22.8542 33.375 22.9375 33.5625 23C33.7708 23.0417 33.9479 23.0625 34.0938 23.0625C34.0938 22.4792 34 22 33.8125 21.625C33.625 21.2292 33.3542 21.0312 33 21.0312ZM52.25 33.25L51.9375 33.875L51.625 34.5312L50.3438 33.5625L50.6562 32.9062C51.1771 31.8438 51.6042 30.7812 51.9375 29.7188C52.2917 28.6354 52.5729 27.625 52.7812 26.6875C53.0104 25.75 53.1979 24.9271 53.3438 24.2188C53.4896 23.5104 53.6354 23 53.7812 22.6875C53.9062 22.4375 54.0833 22.2396 54.3125 22.0938C54.5625 21.9271 54.8125 21.7917 55.0625 21.6875C55.3333 21.5833 55.5833 21.5104 55.8125 21.4688C56.0625 21.4271 56.2396 21.4062 56.3438 21.4062C56.8021 21.4062 57.1042 21.5 57.25 21.6875C57.4167 21.875 57.5 22.2083 57.5 22.6875C57.5 22.9167 57.4479 23.4896 57.3438 24.4062C57.2604 25.3021 57.1562 26.4375 57.0312 27.8125C56.9271 29.1667 56.8229 30.6979 56.7188 32.4062C56.6354 34.0938 56.5938 35.8438 56.5938 37.6562C56.5938 38.9688 56.6562 40.0104 56.7812 40.7812C56.9062 41.5312 57.0625 42.0938 57.25 42.4688C57.4583 42.8438 57.6771 43.0833 57.9062 43.1875C58.1562 43.2917 58.4062 43.3438 58.6562 43.3438C58.9896 43.3438 59.3646 43.1979 59.7812 42.9062C60.1979 42.6146 60.6875 42.1042 61.25 41.375C61.8125 40.625 62.4583 39.625 63.1875 38.375C63.9167 37.1042 64.7708 35.5 65.75 33.5625L66.0938 32.9062L67.375 33.875L67.0312 34.5312C66.2396 36.0729 65.4479 37.5938 64.6562 39.0938C63.8854 40.5938 63.0938 41.9271 62.2812 43.0938C61.4896 44.2604 60.6875 45.2083 59.875 45.9375C59.0625 46.6458 58.25 47 57.4375 47C56.5833 47 55.8438 46.8333 55.2188 46.5C54.6146 46.1458 54.1042 45.5729 53.6875 44.7812C53.2917 43.9896 52.9896 42.9479 52.7812 41.6562C52.5938 40.3438 52.5 38.7292 52.5 36.8125C52.5 36.2708 52.5 35.7083 52.5 35.125C52.5 34.5208 52.5208 33.8958 52.5625 33.25H52.25ZM58.6562 15C58.6562 15.7292 58.4062 16.3438 57.9062 16.8438C57.4271 17.3229 56.8229 17.5625 56.0938 17.5625C55.3854 17.5625 54.7812 17.3229 54.2812 16.8438C53.7812 16.3438 53.5312 15.7292 53.5312 15C53.5312 14.2917 53.7812 13.6875 54.2812 13.1875C54.7812 12.6875 55.3854 12.4375 56.0938 12.4375C56.8229 12.4375 57.4271 12.6875 57.9062 13.1875C58.4062 13.6875 58.6562 14.2917 58.6562 15ZM70.1875 27.2812C70.5417 26.5104 70.9688 25.7708 71.4688 25.0625C71.9688 24.3542 72.5417 23.7292 73.1875 23.1875C73.8333 22.6458 74.5521 22.2188 75.3438 21.9062C76.1354 21.5729 77 21.4062 77.9375 21.4062C79.1875 21.4062 80.2917 21.7083 81.25 22.3125C82.2083 22.8958 83.0104 23.6875 83.6562 24.6875C84.3021 25.6667 84.7917 26.8125 85.125 28.125C85.4583 29.4167 85.625 30.7604 85.625 32.1562C85.625 34.3021 85.4062 36.2396 84.9688 37.9688C84.5521 39.6771 83.9792 41.1771 83.25 42.4688C84.375 41.6146 85.5104 40.4792 86.6562 39.0625C87.8229 37.6458 88.9688 35.8125 90.0938 33.5625L90.4062 32.9062L91.6875 33.875L91.375 34.5312C90.4167 36.4479 89.3646 38.1771 88.2188 39.7188C87.0729 41.2604 85.8542 42.5729 84.5625 43.6562C83.2917 44.7188 81.9583 45.5417 80.5625 46.125C79.1667 46.7083 77.7396 47 76.2812 47C74.9896 47 73.7917 46.7188 72.6875 46.1562C71.6042 45.5938 70.7708 44.8958 70.1875 44.0625V58.8438C70.1875 59.6354 70.125 60.2917 70 60.8125C69.8958 61.3542 69.7083 61.7812 69.4375 62.0938C69.1875 62.4271 68.8438 62.6562 68.4062 62.7812C67.9688 62.9271 67.4375 63 66.8125 63C66.3333 63 66 62.9167 65.8125 62.75C65.625 62.6042 65.5312 62.3646 65.5312 62.0312C65.5312 61.8854 65.5521 61.625 65.5938 61.25C65.6354 60.875 65.6771 60.3021 65.7188 59.5312C65.7604 58.7812 65.8021 57.7812 65.8438 56.5312C65.8854 55.3021 65.9062 53.7292 65.9062 51.8125V34.5312C65.9062 32.2188 65.8958 30.375 65.875 29C65.8542 27.6042 65.8333 26.5208 65.8125 25.75C65.7917 24.9583 65.7708 24.3958 65.75 24.0625C65.7292 23.7292 65.7188 23.4375 65.7188 23.1875C65.7188 22.9792 65.8229 22.7708 66.0312 22.5625C66.2396 22.3542 66.5104 22.1667 66.8438 22C67.1771 21.8333 67.5312 21.6979 67.9062 21.5938C68.3021 21.4688 68.6771 21.4062 69.0312 21.4062C69.3854 21.4062 69.6667 21.5 69.875 21.6875C70.0833 21.875 70.1875 22.2083 70.1875 22.6875V27.2812ZM76.2812 24.1562C75.4062 24.1562 74.5938 24.4583 73.8438 25.0625C73.1146 25.6667 72.4792 26.4479 71.9375 27.4062C71.4167 28.3438 71 29.3854 70.6875 30.5312C70.3958 31.6771 70.25 32.7917 70.25 33.875V37.4688C70.25 38.5938 70.3958 39.6146 70.6875 40.5312C71 41.4479 71.4062 42.2292 71.9062 42.875C72.4062 43.5208 72.9896 44.0208 73.6562 44.375C74.3438 44.7083 75.0625 44.875 75.8125 44.875C77.5833 44.875 78.9167 43.9583 79.8125 42.125C80.7292 40.2917 81.1875 37.4167 81.1875 33.5C81.1875 32.1667 81.0938 30.9271 80.9062 29.7812C80.7188 28.6354 80.4271 27.6458 80.0312 26.8125C79.6354 25.9792 79.125 25.3333 78.5 24.875C77.875 24.3958 77.1354 24.1562 76.2812 24.1562ZM131.344 33.875L131 34.5312C130.292 35.9479 129.344 37.0833 128.156 37.9375C126.99 38.7708 125.719 39.3125 124.344 39.5625C123.969 40.625 123.479 41.6146 122.875 42.5312C122.292 43.4271 121.615 44.2083 120.844 44.875C120.094 45.5417 119.24 46.0625 118.281 46.4375C117.344 46.8125 116.323 47 115.219 47C113.615 47 112.167 46.6667 110.875 46C109.604 45.3125 108.521 44.3958 107.625 43.25C106.729 42.0833 106.042 40.7292 105.562 39.1875C105.083 37.625 104.844 35.9583 104.844 34.1875C104.844 32.6458 105.021 31.25 105.375 30C105.729 28.7292 106.177 27.6042 106.719 26.625C107.26 25.625 107.865 24.7604 108.531 24.0312C109.198 23.2812 109.854 22.6667 110.5 22.1875C111.146 21.7083 111.729 21.3542 112.25 21.125C112.792 20.875 113.198 20.75 113.469 20.75L113.875 21.8438C113.021 22.4688 112.26 23.3438 111.594 24.4688C111.01 25.4271 110.479 26.6979 110 28.2812C109.542 29.8646 109.312 31.8333 109.312 34.1875C109.312 35.625 109.448 37.0208 109.719 38.375C109.99 39.7292 110.385 40.9271 110.906 41.9688C111.427 43.0104 112.062 43.8438 112.812 44.4688C113.583 45.0938 114.448 45.4062 115.406 45.4062C116.719 45.4062 117.802 44.8854 118.656 43.8438C119.531 42.7812 120.177 41.3333 120.594 39.5C119.51 39.2708 118.479 38.8438 117.5 38.2188C116.521 37.5938 115.656 36.8229 114.906 35.9062C114.156 34.9688 113.552 33.8958 113.094 32.6875C112.656 31.4792 112.438 30.1667 112.438 28.75C112.438 27.5833 112.583 26.5625 112.875 25.6875C113.188 24.7917 113.594 24.0521 114.094 23.4688C114.594 22.8646 115.167 22.4167 115.812 22.125C116.479 21.8125 117.177 21.6562 117.906 21.6562C118.76 21.6562 119.635 21.9062 120.531 22.4062C121.427 22.8854 122.24 23.6146 122.969 24.5938C123.698 25.5521 124.292 26.7604 124.75 28.2188C125.208 29.6771 125.438 31.375 125.438 33.3125C125.438 34.0417 125.396 34.7604 125.312 35.4688C125.229 36.1771 125.104 36.8646 124.938 37.5312C125.938 37.2396 126.844 36.7708 127.656 36.125C128.49 35.4792 129.177 34.625 129.719 33.5625L130.062 32.9062L131.344 33.875ZM114.5 28.5C114.5 29.7292 114.667 30.8646 115 31.9062C115.354 32.9271 115.823 33.8333 116.406 34.625C116.99 35.3958 117.667 36.0417 118.438 36.5625C119.208 37.0833 120.031 37.4479 120.906 37.6562C121.01 37.0729 121.073 36.4688 121.094 35.8438C121.135 35.1979 121.156 34.5417 121.156 33.875C121.156 32.3958 121.042 31.0625 120.812 29.875C120.583 28.6667 120.281 27.6458 119.906 26.8125C119.531 25.9583 119.094 25.3021 118.594 24.8438C118.094 24.3854 117.583 24.1562 117.062 24.1562C116.354 24.1562 115.75 24.5417 115.25 25.3125C114.75 26.0625 114.5 27.125 114.5 28.5ZM129.781 33.5625L130.094 32.9062C130.406 32.2812 130.688 31.6354 130.938 30.9688C131.208 30.3021 131.438 29.6771 131.625 29.0938C131.812 28.4896 131.958 27.9583 132.062 27.5C132.167 27.0208 132.24 26.6562 132.281 26.4062C131.74 26.3438 131.219 26.2083 130.719 26C130.219 25.7917 129.781 25.5104 129.406 25.1562C129.031 24.8021 128.74 24.3854 128.531 23.9062C128.302 23.4271 128.188 22.8854 128.188 22.2812C128.188 21.8021 128.271 21.375 128.438 21C128.604 20.625 128.833 20.3125 129.125 20.0625C129.396 19.8125 129.708 19.625 130.062 19.5C130.396 19.3542 130.75 19.2812 131.125 19.2812C131.625 19.2812 132.062 19.3854 132.438 19.5938C132.812 19.8021 133.125 20.0833 133.375 20.4375C133.625 20.7708 133.812 21.1667 133.938 21.625C134.062 22.0625 134.125 22.5208 134.125 23C134.708 23 135.333 22.9167 136 22.75C136.688 22.5833 137.375 22.4062 138.062 22.2188C138.75 22.0104 139.427 21.8229 140.094 21.6562C140.76 21.4896 141.375 21.4062 141.938 21.4062C142.417 21.4062 142.802 21.5104 143.094 21.7188C143.385 21.9062 143.531 22.2292 143.531 22.6875C143.531 23.0208 143.427 23.5729 143.219 24.3438C143.031 25.1146 142.792 26.0104 142.5 27.0312C142.208 28.0521 141.885 29.1667 141.531 30.375C141.198 31.5625 140.885 32.7708 140.594 34C140.302 35.2083 140.052 36.3854 139.844 37.5312C139.656 38.6771 139.562 39.6979 139.562 40.5938C139.562 41.7188 139.688 42.4792 139.938 42.875C140.188 43.2708 140.635 43.4688 141.281 43.4688C141.552 43.4688 141.885 43.3542 142.281 43.125C142.698 42.875 143.198 42.4062 143.781 41.7188C144.365 41.0104 145.052 40.0104 145.844 38.7188C146.656 37.4062 147.594 35.6875 148.656 33.5625L148.969 32.9062L150.25 33.875L149.938 34.5312C148.688 37.0312 147.573 39.0833 146.594 40.6875C145.615 42.2917 144.708 43.5625 143.875 44.5C143.062 45.4375 142.292 46.0938 141.562 46.4688C140.833 46.8229 140.104 47 139.375 47C138.146 47 137.146 46.5312 136.375 45.5938C135.604 44.6562 135.219 43.2083 135.219 41.25C135.219 40.1875 135.365 39.0833 135.656 37.9375C135.948 36.7917 136.312 35.6562 136.75 34.5312C137.188 33.3854 137.677 32.2604 138.219 31.1562C138.76 30.0521 139.271 29.0104 139.75 28.0312C140.25 27.0312 140.698 26.1042 141.094 25.25C141.49 24.3958 141.771 23.6458 141.938 23L141.75 22.8125C141.417 22.8125 140.969 22.9896 140.406 23.3438C139.844 23.6979 139.208 24.1042 138.5 24.5625C137.812 25 137.073 25.4167 136.281 25.8125C135.49 26.2083 134.688 26.4479 133.875 26.5312C133.833 26.8229 133.74 27.25 133.594 27.8125C133.469 28.375 133.292 29 133.062 29.6875C132.833 30.375 132.573 31.0833 132.281 31.8125C131.99 32.5417 131.688 33.2292 131.375 33.875L131.062 34.5312L129.781 33.5625ZM131.312 21.0312C131.125 21.0312 130.969 21.0938 130.844 21.2188C130.719 21.3438 130.656 21.4896 130.656 21.6562C130.656 21.9062 130.719 22.125 130.844 22.3125C130.969 22.4792 131.125 22.625 131.312 22.75C131.5 22.8542 131.688 22.9375 131.875 23C132.083 23.0417 132.26 23.0625 132.406 23.0625C132.406 22.4792 132.312 22 132.125 21.625C131.938 21.2292 131.667 21.0312 131.312 21.0312ZM170.062 47C168.792 47 167.688 46.7292 166.75 46.1875C165.833 45.6458 165.073 44.9167 164.469 44C163.865 43.0625 163.417 41.9896 163.125 40.7812C162.833 39.5729 162.688 38.2917 162.688 36.9375C162.688 35.75 162.802 34.5417 163.031 33.3125C163.26 32.0833 163.583 30.8958 164 29.75C164.438 28.5833 164.979 27.5 165.625 26.5C166.271 25.4792 167.01 24.5938 167.844 23.8438C168.677 23.0938 169.604 22.5 170.625 22.0625C171.667 21.625 172.781 21.4062 173.969 21.4062C175.323 21.4062 176.469 21.7083 177.406 22.3125C178.365 22.9167 179.135 23.6562 179.719 24.5312C179.74 20.5938 179.938 17.1146 180.312 14.0938C180.688 11.0729 181.208 8.54167 181.875 6.5C182.562 4.45833 183.375 2.91667 184.312 1.875C185.25 0.8125 186.281 0.28125 187.406 0.28125C187.802 0.28125 188.156 0.333333 188.469 0.4375C188.802 0.520833 189.073 0.6875 189.281 0.9375C189.51 1.1875 189.677 1.53125 189.781 1.96875C189.906 2.38542 189.969 2.92708 189.969 3.59375C189.969 4.96875 189.833 6.55208 189.562 8.34375C189.292 10.1146 188.906 12.0521 188.406 14.1562C187.906 16.2396 187.292 18.4688 186.562 20.8438C185.854 23.1979 185.062 25.6458 184.188 28.1875C184.208 30.4167 184.24 32.3438 184.281 33.9688C184.323 35.5938 184.375 36.9688 184.438 38.0938C184.521 39.2188 184.615 40.1354 184.719 40.8438C184.844 41.5521 184.979 42.1042 185.125 42.5C185.292 42.875 185.479 43.1354 185.688 43.2812C185.917 43.4062 186.167 43.4688 186.438 43.4688C186.917 43.4688 187.396 43.2604 187.875 42.8438C188.375 42.4062 188.906 41.7708 189.469 40.9375C190.031 40.0833 190.635 39.0417 191.281 37.8125C191.948 36.5833 192.677 35.1667 193.469 33.5625L193.812 32.9062L195.094 33.875L194.75 34.5312C193.542 36.9688 192.479 38.9896 191.562 40.5938C190.646 42.1771 189.802 43.4479 189.031 44.4062C188.281 45.3646 187.562 46.0417 186.875 46.4375C186.188 46.8125 185.469 47 184.719 47C183.99 47 183.354 46.8229 182.812 46.4688C182.292 46.0938 181.844 45.5208 181.469 44.75C181.094 43.9583 180.792 42.9583 180.562 41.75C180.333 40.5208 180.156 39.0521 180.031 37.3438C179.302 38.8021 178.552 40.125 177.781 41.3125C177.01 42.5 176.208 43.5208 175.375 44.375C174.562 45.2083 173.708 45.8542 172.812 46.3125C171.917 46.7708 171 47 170.062 47ZM174.594 23C173.448 23 172.448 23.3542 171.594 24.0625C170.74 24.75 170.031 25.6562 169.469 26.7812C168.906 27.8854 168.49 29.1354 168.219 30.5312C167.948 31.9271 167.812 33.3229 167.812 34.7188C167.812 35.8646 167.896 36.9688 168.062 38.0312C168.25 39.0729 168.521 40 168.875 40.8125C169.25 41.625 169.698 42.2708 170.219 42.75C170.74 43.2292 171.344 43.4688 172.031 43.4688C172.698 43.4688 173.344 43.3021 173.969 42.9688C174.615 42.6354 175.25 42.1042 175.875 41.375C176.5 40.625 177.135 39.6667 177.781 38.5C178.427 37.3125 179.115 35.875 179.844 34.1875C179.802 33.1875 179.771 32.125 179.75 31C179.729 29.8542 179.719 28.6354 179.719 27.3438C179.26 25.9896 178.562 24.9271 177.625 24.1562C176.708 23.3854 175.698 23 174.594 23ZM187.719 4.75C187.719 3.79167 187.604 3.125 187.375 2.75C187.167 2.375 186.917 2.1875 186.625 2.1875C186.125 2.1875 185.719 2.67708 185.406 3.65625C185.094 4.61458 184.844 5.91667 184.656 7.5625C184.49 9.20833 184.365 11.1146 184.281 13.2812C184.219 15.4479 184.188 17.7292 184.188 20.125V23.5625C184.833 21.4583 185.385 19.5625 185.844 17.875C186.302 16.1875 186.667 14.6146 186.938 13.1562C187.208 11.6979 187.406 10.2917 187.531 8.9375C187.656 7.58333 187.719 6.1875 187.719 4.75ZM193.531 33.5625L193.844 32.9062C194.156 32.2812 194.438 31.6354 194.688 30.9688C194.958 30.3021 195.188 29.6771 195.375 29.0938C195.562 28.4896 195.708 27.9583 195.812 27.5C195.917 27.0208 195.99 26.6562 196.031 26.4062C195.49 26.3438 194.969 26.2083 194.469 26C193.969 25.7917 193.531 25.5104 193.156 25.1562C192.781 24.8021 192.49 24.3854 192.281 23.9062C192.052 23.4271 191.938 22.8854 191.938 22.2812C191.938 21.8021 192.021 21.375 192.188 21C192.354 20.625 192.583 20.3125 192.875 20.0625C193.146 19.8125 193.458 19.625 193.812 19.5C194.146 19.3542 194.5 19.2812 194.875 19.2812C195.375 19.2812 195.812 19.3854 196.188 19.5938C196.562 19.8021 196.875 20.0833 197.125 20.4375C197.375 20.7708 197.562 21.1667 197.688 21.625C197.812 22.0625 197.875 22.5208 197.875 23C198.458 23 199.083 22.9167 199.75 22.75C200.438 22.5833 201.125 22.4062 201.812 22.2188C202.5 22.0104 203.177 21.8229 203.844 21.6562C204.51 21.4896 205.125 21.4062 205.688 21.4062C206.167 21.4062 206.552 21.5104 206.844 21.7188C207.135 21.9062 207.281 22.2292 207.281 22.6875C207.281 23.0208 207.177 23.5729 206.969 24.3438C206.781 25.1146 206.542 26.0104 206.25 27.0312C205.958 28.0521 205.635 29.1667 205.281 30.375C204.948 31.5625 204.635 32.7708 204.344 34C204.052 35.2083 203.802 36.3854 203.594 37.5312C203.406 38.6771 203.312 39.6979 203.312 40.5938C203.312 41.7188 203.438 42.4792 203.688 42.875C203.938 43.2708 204.385 43.4688 205.031 43.4688C205.302 43.4688 205.635 43.3542 206.031 43.125C206.448 42.875 206.948 42.4062 207.531 41.7188C208.115 41.0104 208.802 40.0104 209.594 38.7188C210.406 37.4062 211.344 35.6875 212.406 33.5625L212.719 32.9062L214 33.875L213.688 34.5312C212.438 37.0312 211.323 39.0833 210.344 40.6875C209.365 42.2917 208.458 43.5625 207.625 44.5C206.812 45.4375 206.042 46.0938 205.312 46.4688C204.583 46.8229 203.854 47 203.125 47C201.896 47 200.896 46.5312 200.125 45.5938C199.354 44.6562 198.969 43.2083 198.969 41.25C198.969 40.1875 199.115 39.0833 199.406 37.9375C199.698 36.7917 200.062 35.6562 200.5 34.5312C200.938 33.3854 201.427 32.2604 201.969 31.1562C202.51 30.0521 203.021 29.0104 203.5 28.0312C204 27.0312 204.448 26.1042 204.844 25.25C205.24 24.3958 205.521 23.6458 205.688 23L205.5 22.8125C205.167 22.8125 204.719 22.9896 204.156 23.3438C203.594 23.6979 202.958 24.1042 202.25 24.5625C201.562 25 200.823 25.4167 200.031 25.8125C199.24 26.2083 198.438 26.4479 197.625 26.5312C197.583 26.8229 197.49 27.25 197.344 27.8125C197.219 28.375 197.042 29 196.812 29.6875C196.583 30.375 196.323 31.0833 196.031 31.8125C195.74 32.5417 195.438 33.2292 195.125 33.875L194.812 34.5312L193.531 33.5625ZM195.062 21.0312C194.875 21.0312 194.719 21.0938 194.594 21.2188C194.469 21.3438 194.406 21.4896 194.406 21.6562C194.406 21.9062 194.469 22.125 194.594 22.3125C194.719 22.4792 194.875 22.625 195.062 22.75C195.25 22.8542 195.438 22.9375 195.625 23C195.833 23.0417 196.01 23.0625 196.156 23.0625C196.156 22.4792 196.062 22 195.875 21.625C195.688 21.2292 195.417 21.0312 195.062 21.0312ZM238.906 33.875L238.562 34.5312C237.854 35.9479 236.906 37.0833 235.719 37.9375C234.552 38.7708 233.281 39.3125 231.906 39.5625C231.531 40.625 231.042 41.6146 230.438 42.5312C229.854 43.4271 229.177 44.2083 228.406 44.875C227.656 45.5417 226.802 46.0625 225.844 46.4375C224.906 46.8125 223.885 47 222.781 47C221.177 47 219.729 46.6667 218.438 46C217.167 45.3125 216.083 44.3958 215.188 43.25C214.292 42.0833 213.604 40.7292 213.125 39.1875C212.646 37.625 212.406 35.9583 212.406 34.1875C212.406 32.6458 212.583 31.25 212.938 30C213.292 28.7292 213.74 27.6042 214.281 26.625C214.823 25.625 215.427 24.7604 216.094 24.0312C216.76 23.2812 217.417 22.6667 218.062 22.1875C218.708 21.7083 219.292 21.3542 219.812 21.125C220.354 20.875 220.76 20.75 221.031 20.75L221.438 21.8438C220.583 22.4688 219.823 23.3438 219.156 24.4688C218.573 25.4271 218.042 26.6979 217.562 28.2812C217.104 29.8646 216.875 31.8333 216.875 34.1875C216.875 35.625 217.01 37.0208 217.281 38.375C217.552 39.7292 217.948 40.9271 218.469 41.9688C218.99 43.0104 219.625 43.8438 220.375 44.4688C221.146 45.0938 222.01 45.4062 222.969 45.4062C224.281 45.4062 225.365 44.8854 226.219 43.8438C227.094 42.7812 227.74 41.3333 228.156 39.5C227.073 39.2708 226.042 38.8438 225.062 38.2188C224.083 37.5938 223.219 36.8229 222.469 35.9062C221.719 34.9688 221.115 33.8958 220.656 32.6875C220.219 31.4792 220 30.1667 220 28.75C220 27.5833 220.146 26.5625 220.438 25.6875C220.75 24.7917 221.156 24.0521 221.656 23.4688C222.156 22.8646 222.729 22.4167 223.375 22.125C224.042 21.8125 224.74 21.6562 225.469 21.6562C226.323 21.6562 227.198 21.9062 228.094 22.4062C228.99 22.8854 229.802 23.6146 230.531 24.5938C231.26 25.5521 231.854 26.7604 232.312 28.2188C232.771 29.6771 233 31.375 233 33.3125C233 34.0417 232.958 34.7604 232.875 35.4688C232.792 36.1771 232.667 36.8646 232.5 37.5312C233.5 37.2396 234.406 36.7708 235.219 36.125C236.052 35.4792 236.74 34.625 237.281 33.5625L237.625 32.9062L238.906 33.875ZM222.062 28.5C222.062 29.7292 222.229 30.8646 222.562 31.9062C222.917 32.9271 223.385 33.8333 223.969 34.625C224.552 35.3958 225.229 36.0417 226 36.5625C226.771 37.0833 227.594 37.4479 228.469 37.6562C228.573 37.0729 228.635 36.4688 228.656 35.8438C228.698 35.1979 228.719 34.5417 228.719 33.875C228.719 32.3958 228.604 31.0625 228.375 29.875C228.146 28.6667 227.844 27.6458 227.469 26.8125C227.094 25.9583 226.656 25.3021 226.156 24.8438C225.656 24.3854 225.146 24.1562 224.625 24.1562C223.917 24.1562 223.312 24.5417 222.812 25.3125C222.312 26.0625 222.062 27.125 222.062 28.5ZM241.75 27.2812C242.104 26.5104 242.531 25.7708 243.031 25.0625C243.531 24.3542 244.104 23.7292 244.75 23.1875C245.396 22.6458 246.115 22.2188 246.906 21.9062C247.698 21.5729 248.562 21.4062 249.5 21.4062C250.75 21.4062 251.854 21.7083 252.812 22.3125C253.771 22.8958 254.573 23.6875 255.219 24.6875C255.865 25.6667 256.354 26.8125 256.688 28.125C257.021 29.4167 257.188 30.7604 257.188 32.1562C257.188 34.3021 256.969 36.2396 256.531 37.9688C256.115 39.6771 255.542 41.1771 254.812 42.4688C255.938 41.6146 257.073 40.4792 258.219 39.0625C259.385 37.6458 260.531 35.8125 261.656 33.5625L261.969 32.9062L263.25 33.875L262.938 34.5312C261.979 36.4479 260.927 38.1771 259.781 39.7188C258.635 41.2604 257.417 42.5729 256.125 43.6562C254.854 44.7188 253.521 45.5417 252.125 46.125C250.729 46.7083 249.302 47 247.844 47C246.552 47 245.354 46.7188 244.25 46.1562C243.167 45.5938 242.333 44.8958 241.75 44.0625V58.8438C241.75 59.6354 241.688 60.2917 241.562 60.8125C241.458 61.3542 241.271 61.7812 241 62.0938C240.75 62.4271 240.406 62.6562 239.969 62.7812C239.531 62.9271 239 63 238.375 63C237.896 63 237.562 62.9167 237.375 62.75C237.188 62.6042 237.094 62.3646 237.094 62.0312C237.094 61.8854 237.115 61.625 237.156 61.25C237.198 60.875 237.24 60.3021 237.281 59.5312C237.323 58.7812 237.365 57.7812 237.406 56.5312C237.448 55.3021 237.469 53.7292 237.469 51.8125V34.5312C237.469 32.2188 237.458 30.375 237.438 29C237.417 27.6042 237.396 26.5208 237.375 25.75C237.354 24.9583 237.333 24.3958 237.312 24.0625C237.292 23.7292 237.281 23.4375 237.281 23.1875C237.281 22.9792 237.385 22.7708 237.594 22.5625C237.802 22.3542 238.073 22.1667 238.406 22C238.74 21.8333 239.094 21.6979 239.469 21.5938C239.865 21.4688 240.24 21.4062 240.594 21.4062C240.948 21.4062 241.229 21.5 241.438 21.6875C241.646 21.875 241.75 22.2083 241.75 22.6875V27.2812ZM247.844 24.1562C246.969 24.1562 246.156 24.4583 245.406 25.0625C244.677 25.6667 244.042 26.4479 243.5 27.4062C242.979 28.3438 242.562 29.3854 242.25 30.5312C241.958 31.6771 241.812 32.7917 241.812 33.875V37.4688C241.812 38.5938 241.958 39.6146 242.25 40.5312C242.562 41.4479 242.969 42.2292 243.469 42.875C243.969 43.5208 244.552 44.0208 245.219 44.375C245.906 44.7083 246.625 44.875 247.375 44.875C249.146 44.875 250.479 43.9583 251.375 42.125C252.292 40.2917 252.75 37.4167 252.75 33.5C252.75 32.1667 252.656 30.9271 252.469 29.7812C252.281 28.6354 251.99 27.6458 251.594 26.8125C251.198 25.9792 250.688 25.3333 250.062 24.875C249.438 24.3958 248.698 24.1562 247.844 24.1562ZM270.577 26.04H267.441V34.904H265.809V26.04H262.705V24.6H270.577V26.04ZM271.953 34.904V24.6H273.553L276.913 29.528L280.337 24.6H281.937V34.904H280.305V27.256L277.233 31.704H276.561L273.585 27.224V34.904H271.953Z" fill="white"/>
</svg>
