<svg width="264" height="63" viewBox="0 0 264 63" fill="none" xmlns="http://www.w3.org/2000/svg">
<path d="M8.1875 47C6.91667 47 5.8125 46.7292 4.875 46.1875C3.95833 45.6458 3.19792 44.9167 2.59375 44C1.98958 43.0625 1.54167 41.9896 1.25 40.7812C0.958333 39.5729 0.8125 38.2917 0.8125 36.9375C0.8125 35.75 0.927083 34.5417 1.15625 33.3125C1.38542 32.0833 1.70833 30.8958 2.125 29.75C2.5625 28.5833 3.10417 27.5 3.75 26.5C4.39583 25.4792 5.13542 24.5938 5.96875 23.8438C6.80208 23.0938 7.72917 22.5 8.75 22.0625C9.79167 21.625 10.9062 21.4062 12.0938 21.4062C13.4479 21.4062 14.5938 21.7083 15.5312 22.3125C16.4896 22.9167 17.2604 23.6562 17.8438 24.5312C17.8646 20.5938 18.0625 17.1146 18.4375 14.0938C18.8125 11.0729 19.3333 8.54167 20 6.5C20.6875 4.45833 21.5 2.91667 22.4375 1.875C23.375 0.8125 24.4062 0.28125 25.5312 0.28125C25.9271 0.28125 26.2812 0.333333 26.5938 0.4375C26.9271 0.520833 27.1979 0.6875 27.4062 0.9375C27.6354 1.1875 27.8021 1.53125 27.9062 1.96875C28.0312 2.38542 28.0938 2.92708 28.0938 3.59375C28.0938 4.96875 27.9583 6.55208 27.6875 8.34375C27.4167 10.1146 27.0312 12.0521 26.5312 14.1562C26.0312 16.2396 25.4167 18.4688 24.6875 20.8438C23.9792 23.1979 23.1875 25.6458 22.3125 28.1875C22.3333 30.4167 22.3646 32.3438 22.4062 33.9688C22.4479 35.5938 22.5 36.9688 22.5625 38.0938C22.6458 39.2188 22.7396 40.1354 22.8438 40.8438C22.9688 41.5521 23.1042 42.1042 23.25 42.5C23.4167 42.875 23.6042 43.1354 23.8125 43.2812C24.0417 43.4062 24.2917 43.4688 24.5625 43.4688C25.0417 43.4688 25.5208 43.2604 26 42.8438C26.5 42.4062 27.0312 41.7708 27.5938 40.9375C28.1562 40.0833 28.7604 39.0417 29.4062 37.8125C30.0729 36.5833 30.8021 35.1667 31.5938 33.5625L31.9375 32.9062L33.2188 33.875L32.875 34.5312C31.6667 36.9688 30.6042 38.9896 29.6875 40.5938C28.7708 42.1771 27.9271 43.4479 27.1562 44.4062C26.4062 45.3646 25.6875 46.0417 25 46.4375C24.3125 46.8125 23.5938 47 22.8438 47C22.1146 47 21.4792 46.8229 20.9375 46.4688C20.4167 46.0938 19.9688 45.5208 19.5938 44.75C19.2188 43.9583 18.9167 42.9583 18.6875 41.75C18.4583 40.5208 18.2812 39.0521 18.1562 37.3438C17.4271 38.8021 16.6771 40.125 15.9062 41.3125C15.1354 42.5 14.3333 43.5208 13.5 44.375C12.6875 45.2083 11.8333 45.8542 10.9375 46.3125C10.0417 46.7708 9.125 47 8.1875 47ZM12.7188 23C11.5729 23 10.5729 23.3542 9.71875 24.0625C8.86458 24.75 8.15625 25.6562 7.59375 26.7812C7.03125 27.8854 6.61458 29.1354 6.34375 30.5312C6.07292 31.9271 5.9375 33.3229 5.9375 34.7188C5.9375 35.8646 6.02083 36.9688 6.1875 38.0312C6.375 39.0729 6.64583 40 7 40.8125C7.375 41.625 7.82292 42.2708 8.34375 42.75C8.86458 43.2292 9.46875 43.4688 10.1562 43.4688C10.8229 43.4688 11.4688 43.3021 12.0938 42.9688C12.7396 42.6354 13.375 42.1042 14 41.375C14.625 40.625 15.2604 39.6667 15.9062 38.5C16.5521 37.3125 17.2396 35.875 17.9688 34.1875C17.9271 33.1875 17.8958 32.125 17.875 31C17.8542 29.8542 17.8438 28.6354 17.8438 27.3438C17.3854 25.9896 16.6875 24.9271 15.75 24.1562C14.8333 23.3854 13.8229 23 12.7188 23ZM25.8438 4.75C25.8438 3.79167 25.7292 3.125 25.5 2.75C25.2917 2.375 25.0417 2.1875 24.75 2.1875C24.25 2.1875 23.8438 2.67708 23.5312 3.65625C23.2188 4.61458 22.9688 5.91667 22.7812 7.5625C22.6146 9.20833 22.4896 11.1146 22.4062 13.2812C22.3438 15.4479 22.3125 17.7292 22.3125 20.125V23.5625C22.9583 21.4583 23.5104 19.5625 23.9688 17.875C24.4271 16.1875 24.7917 14.6146 25.0625 13.1562C25.3333 11.6979 25.5312 10.2917 25.6562 8.9375C25.7812 7.58333 25.8438 6.1875 25.8438 4.75ZM31.6562 33.5625L31.9688 32.9062C32.2812 32.2812 32.5625 31.6354 32.8125 30.9688C33.0833 30.3021 33.3125 29.6771 33.5 29.0938C33.6875 28.4896 33.8333 27.9583 33.9375 27.5C34.0417 27.0208 34.1146 26.6562 34.1562 26.4062C33.6146 26.3438 33.0938 26.2083 32.5938 26C32.0938 25.7917 31.6562 25.5104 31.2812 25.1562C30.9062 24.8021 30.6146 24.3854 30.4062 23.9062C30.1771 23.4271 30.0625 22.8854 30.0625 22.2812C30.0625 21.8021 30.1458 21.375 30.3125 21C30.4792 20.625 30.7083 20.3125 31 20.0625C31.2708 19.8125 31.5833 19.625 31.9375 19.5C32.2708 19.3542 32.625 19.2812 33 19.2812C33.5 19.2812 33.9375 19.3854 34.3125 19.5938C34.6875 19.8021 35 20.0833 35.25 20.4375C35.5 20.7708 35.6875 21.1667 35.8125 21.625C35.9375 22.0625 36 22.5208 36 23C36.5833 23 37.2083 22.9167 37.875 22.75C38.5625 22.5833 39.25 22.4062 39.9375 22.2188C40.625 22.0104 41.3021 21.8229 41.9688 21.6562C42.6354 21.4896 43.25 21.4062 43.8125 21.4062C44.2917 21.4062 44.6771 21.5104 44.9688 21.7188C45.2604 21.9062 45.4062 22.2292 45.4062 22.6875C45.4062 23.0208 45.3021 23.5729 45.0938 24.3438C44.9062 25.1146 44.6667 26.0104 44.375 27.0312C44.0833 28.0521 43.7604 29.1667 43.4062 30.375C43.0729 31.5625 42.7604 32.7708 42.4688 34C42.1771 35.2083 41.9271 36.3854 41.7188 37.5312C41.5312 38.6771 41.4375 39.6979 41.4375 40.5938C41.4375 41.7188 41.5625 42.4792 41.8125 42.875C42.0625 43.2708 42.5104 43.4688 43.1562 43.4688C43.4271 43.4688 43.7604 43.3542 44.1562 43.125C44.5729 42.875 45.0729 42.4062 45.6562 41.7188C46.2396 41.0104 46.9271 40.0104 47.7188 38.7188C48.5312 37.4062 49.4688 35.6875 50.5312 33.5625L50.8438 32.9062L52.125 33.875L51.8125 34.5312C50.5625 37.0312 49.4479 39.0833 48.4688 40.6875C47.4896 42.2917 46.5833 43.5625 45.75 44.5C44.9375 45.4375 44.1667 46.0938 43.4375 46.4688C42.7083 46.8229 41.9792 47 41.25 47C40.0208 47 39.0208 46.5312 38.25 45.5938C37.4792 44.6562 37.0938 43.2083 37.0938 41.25C37.0938 40.1875 37.2396 39.0833 37.5312 37.9375C37.8229 36.7917 38.1875 35.6562 38.625 34.5312C39.0625 33.3854 39.5521 32.2604 40.0938 31.1562C40.6354 30.0521 41.1458 29.0104 41.625 28.0312C42.125 27.0312 42.5729 26.1042 42.9688 25.25C43.3646 24.3958 43.6458 23.6458 43.8125 23L43.625 22.8125C43.2917 22.8125 42.8438 22.9896 42.2812 23.3438C41.7188 23.6979 41.0833 24.1042 40.375 24.5625C39.6875 25 38.9479 25.4167 38.1562 25.8125C37.3646 26.2083 36.5625 26.4479 35.75 26.5312C35.7083 26.8229 35.6146 27.25 35.4688 27.8125C35.3438 28.375 35.1667 29 34.9375 29.6875C34.7083 30.375 34.4479 31.0833 34.1562 31.8125C33.8646 32.5417 33.5625 33.2292 33.25 33.875L32.9375 34.5312L31.6562 33.5625ZM33.1875 21.0312C33 21.0312 32.8438 21.0938 32.7188 21.2188C32.5938 21.3438 32.5312 21.4896 32.5312 21.6562C32.5312 21.9062 32.5938 22.125 32.7188 22.3125C32.8438 22.4792 33 22.625 33.1875 22.75C33.375 22.8542 33.5625 22.9375 33.75 23C33.9583 23.0417 34.1354 23.0625 34.2812 23.0625C34.2812 22.4792 34.1875 22 34 21.625C33.8125 21.2292 33.5417 21.0312 33.1875 21.0312ZM52.4375 33.25L52.125 33.875L51.8125 34.5312L50.5312 33.5625L50.8438 32.9062C51.3646 31.8438 51.7917 30.7812 52.125 29.7188C52.4792 28.6354 52.7604 27.625 52.9688 26.6875C53.1979 25.75 53.3854 24.9271 53.5312 24.2188C53.6771 23.5104 53.8229 23 53.9688 22.6875C54.0938 22.4375 54.2708 22.2396 54.5 22.0938C54.75 21.9271 55 21.7917 55.25 21.6875C55.5208 21.5833 55.7708 21.5104 56 21.4688C56.25 21.4271 56.4271 21.4062 56.5312 21.4062C56.9896 21.4062 57.2917 21.5 57.4375 21.6875C57.6042 21.875 57.6875 22.2083 57.6875 22.6875C57.6875 22.9167 57.6354 23.4896 57.5312 24.4062C57.4479 25.3021 57.3438 26.4375 57.2188 27.8125C57.1146 29.1667 57.0104 30.6979 56.9062 32.4062C56.8229 34.0938 56.7812 35.8438 56.7812 37.6562C56.7812 38.9688 56.8438 40.0104 56.9688 40.7812C57.0938 41.5312 57.25 42.0938 57.4375 42.4688C57.6458 42.8438 57.8646 43.0833 58.0938 43.1875C58.3438 43.2917 58.5938 43.3438 58.8438 43.3438C59.1771 43.3438 59.5521 43.1979 59.9688 42.9062C60.3854 42.6146 60.875 42.1042 61.4375 41.375C62 40.625 62.6458 39.625 63.375 38.375C64.1042 37.1042 64.9583 35.5 65.9375 33.5625L66.2812 32.9062L67.5625 33.875L67.2188 34.5312C66.4271 36.0729 65.6354 37.5938 64.8438 39.0938C64.0729 40.5938 63.2812 41.9271 62.4688 43.0938C61.6771 44.2604 60.875 45.2083 60.0625 45.9375C59.25 46.6458 58.4375 47 57.625 47C56.7708 47 56.0312 46.8333 55.4062 46.5C54.8021 46.1458 54.2917 45.5729 53.875 44.7812C53.4792 43.9896 53.1771 42.9479 52.9688 41.6562C52.7812 40.3438 52.6875 38.7292 52.6875 36.8125C52.6875 36.2708 52.6875 35.7083 52.6875 35.125C52.6875 34.5208 52.7083 33.8958 52.75 33.25H52.4375ZM58.8438 15C58.8438 15.7292 58.5938 16.3438 58.0938 16.8438C57.6146 17.3229 57.0104 17.5625 56.2812 17.5625C55.5729 17.5625 54.9688 17.3229 54.4688 16.8438C53.9688 16.3438 53.7188 15.7292 53.7188 15C53.7188 14.2917 53.9688 13.6875 54.4688 13.1875C54.9688 12.6875 55.5729 12.4375 56.2812 12.4375C57.0104 12.4375 57.6146 12.6875 58.0938 13.1875C58.5938 13.6875 58.8438 14.2917 58.8438 15ZM70.375 27.2812C70.7292 26.5104 71.1562 25.7708 71.6562 25.0625C72.1562 24.3542 72.7292 23.7292 73.375 23.1875C74.0208 22.6458 74.7396 22.2188 75.5312 21.9062C76.3229 21.5729 77.1875 21.4062 78.125 21.4062C79.375 21.4062 80.4792 21.7083 81.4375 22.3125C82.3958 22.8958 83.1979 23.6875 83.8438 24.6875C84.4896 25.6667 84.9792 26.8125 85.3125 28.125C85.6458 29.4167 85.8125 30.7604 85.8125 32.1562C85.8125 34.3021 85.5938 36.2396 85.1562 37.9688C84.7396 39.6771 84.1667 41.1771 83.4375 42.4688C84.5625 41.6146 85.6979 40.4792 86.8438 39.0625C88.0104 37.6458 89.1562 35.8125 90.2812 33.5625L90.5938 32.9062L91.875 33.875L91.5625 34.5312C90.6042 36.4479 89.5521 38.1771 88.4062 39.7188C87.2604 41.2604 86.0417 42.5729 84.75 43.6562C83.4792 44.7188 82.1458 45.5417 80.75 46.125C79.3542 46.7083 77.9271 47 76.4688 47C75.1771 47 73.9792 46.7188 72.875 46.1562C71.7917 45.5938 70.9583 44.8958 70.375 44.0625V58.8438C70.375 59.6354 70.3125 60.2917 70.1875 60.8125C70.0833 61.3542 69.8958 61.7812 69.625 62.0938C69.375 62.4271 69.0312 62.6562 68.5938 62.7812C68.1562 62.9271 67.625 63 67 63C66.5208 63 66.1875 62.9167 66 62.75C65.8125 62.6042 65.7188 62.3646 65.7188 62.0312C65.7188 61.8854 65.7396 61.625 65.7812 61.25C65.8229 60.875 65.8646 60.3021 65.9062 59.5312C65.9479 58.7812 65.9896 57.7812 66.0312 56.5312C66.0729 55.3021 66.0938 53.7292 66.0938 51.8125V34.5312C66.0938 32.2188 66.0833 30.375 66.0625 29C66.0417 27.6042 66.0208 26.5208 66 25.75C65.9792 24.9583 65.9583 24.3958 65.9375 24.0625C65.9167 23.7292 65.9062 23.4375 65.9062 23.1875C65.9062 22.9792 66.0104 22.7708 66.2188 22.5625C66.4271 22.3542 66.6979 22.1667 67.0312 22C67.3646 21.8333 67.7188 21.6979 68.0938 21.5938C68.4896 21.4688 68.8646 21.4062 69.2188 21.4062C69.5729 21.4062 69.8542 21.5 70.0625 21.6875C70.2708 21.875 70.375 22.2083 70.375 22.6875V27.2812ZM76.4688 24.1562C75.5938 24.1562 74.7812 24.4583 74.0312 25.0625C73.3021 25.6667 72.6667 26.4479 72.125 27.4062C71.6042 28.3438 71.1875 29.3854 70.875 30.5312C70.5833 31.6771 70.4375 32.7917 70.4375 33.875V37.4688C70.4375 38.5938 70.5833 39.6146 70.875 40.5312C71.1875 41.4479 71.5938 42.2292 72.0938 42.875C72.5938 43.5208 73.1771 44.0208 73.8438 44.375C74.5312 44.7083 75.25 44.875 76 44.875C77.7708 44.875 79.1042 43.9583 80 42.125C80.9167 40.2917 81.375 37.4167 81.375 33.5C81.375 32.1667 81.2812 30.9271 81.0938 29.7812C80.9062 28.6354 80.6146 27.6458 80.2188 26.8125C79.8229 25.9792 79.3125 25.3333 78.6875 24.875C78.0625 24.3958 77.3229 24.1562 76.4688 24.1562ZM131.531 33.875L131.188 34.5312C130.479 35.9479 129.531 37.0833 128.344 37.9375C127.177 38.7708 125.906 39.3125 124.531 39.5625C124.156 40.625 123.667 41.6146 123.062 42.5312C122.479 43.4271 121.802 44.2083 121.031 44.875C120.281 45.5417 119.427 46.0625 118.469 46.4375C117.531 46.8125 116.51 47 115.406 47C113.802 47 112.354 46.6667 111.062 46C109.792 45.3125 108.708 44.3958 107.812 43.25C106.917 42.0833 106.229 40.7292 105.75 39.1875C105.271 37.625 105.031 35.9583 105.031 34.1875C105.031 32.6458 105.208 31.25 105.562 30C105.917 28.7292 106.365 27.6042 106.906 26.625C107.448 25.625 108.052 24.7604 108.719 24.0312C109.385 23.2812 110.042 22.6667 110.688 22.1875C111.333 21.7083 111.917 21.3542 112.438 21.125C112.979 20.875 113.385 20.75 113.656 20.75L114.062 21.8438C113.208 22.4688 112.448 23.3438 111.781 24.4688C111.198 25.4271 110.667 26.6979 110.188 28.2812C109.729 29.8646 109.5 31.8333 109.5 34.1875C109.5 35.625 109.635 37.0208 109.906 38.375C110.177 39.7292 110.573 40.9271 111.094 41.9688C111.615 43.0104 112.25 43.8438 113 44.4688C113.771 45.0938 114.635 45.4062 115.594 45.4062C116.906 45.4062 117.99 44.8854 118.844 43.8438C119.719 42.7812 120.365 41.3333 120.781 39.5C119.698 39.2708 118.667 38.8438 117.688 38.2188C116.708 37.5938 115.844 36.8229 115.094 35.9062C114.344 34.9688 113.74 33.8958 113.281 32.6875C112.844 31.4792 112.625 30.1667 112.625 28.75C112.625 27.5833 112.771 26.5625 113.062 25.6875C113.375 24.7917 113.781 24.0521 114.281 23.4688C114.781 22.8646 115.354 22.4167 116 22.125C116.667 21.8125 117.365 21.6562 118.094 21.6562C118.948 21.6562 119.823 21.9062 120.719 22.4062C121.615 22.8854 122.427 23.6146 123.156 24.5938C123.885 25.5521 124.479 26.7604 124.938 28.2188C125.396 29.6771 125.625 31.375 125.625 33.3125C125.625 34.0417 125.583 34.7604 125.5 35.4688C125.417 36.1771 125.292 36.8646 125.125 37.5312C126.125 37.2396 127.031 36.7708 127.844 36.125C128.677 35.4792 129.365 34.625 129.906 33.5625L130.25 32.9062L131.531 33.875ZM114.688 28.5C114.688 29.7292 114.854 30.8646 115.188 31.9062C115.542 32.9271 116.01 33.8333 116.594 34.625C117.177 35.3958 117.854 36.0417 118.625 36.5625C119.396 37.0833 120.219 37.4479 121.094 37.6562C121.198 37.0729 121.26 36.4688 121.281 35.8438C121.323 35.1979 121.344 34.5417 121.344 33.875C121.344 32.3958 121.229 31.0625 121 29.875C120.771 28.6667 120.469 27.6458 120.094 26.8125C119.719 25.9583 119.281 25.3021 118.781 24.8438C118.281 24.3854 117.771 24.1562 117.25 24.1562C116.542 24.1562 115.938 24.5417 115.438 25.3125C114.938 26.0625 114.688 27.125 114.688 28.5ZM129.969 33.5625L130.281 32.9062C130.594 32.2812 130.875 31.6354 131.125 30.9688C131.396 30.3021 131.625 29.6771 131.812 29.0938C132 28.4896 132.146 27.9583 132.25 27.5C132.354 27.0208 132.427 26.6562 132.469 26.4062C131.927 26.3438 131.406 26.2083 130.906 26C130.406 25.7917 129.969 25.5104 129.594 25.1562C129.219 24.8021 128.927 24.3854 128.719 23.9062C128.49 23.4271 128.375 22.8854 128.375 22.2812C128.375 21.8021 128.458 21.375 128.625 21C128.792 20.625 129.021 20.3125 129.312 20.0625C129.583 19.8125 129.896 19.625 130.25 19.5C130.583 19.3542 130.938 19.2812 131.312 19.2812C131.812 19.2812 132.25 19.3854 132.625 19.5938C133 19.8021 133.312 20.0833 133.562 20.4375C133.812 20.7708 134 21.1667 134.125 21.625C134.25 22.0625 134.312 22.5208 134.312 23C134.896 23 135.521 22.9167 136.188 22.75C136.875 22.5833 137.562 22.4062 138.25 22.2188C138.938 22.0104 139.615 21.8229 140.281 21.6562C140.948 21.4896 141.562 21.4062 142.125 21.4062C142.604 21.4062 142.99 21.5104 143.281 21.7188C143.573 21.9062 143.719 22.2292 143.719 22.6875C143.719 23.0208 143.615 23.5729 143.406 24.3438C143.219 25.1146 142.979 26.0104 142.688 27.0312C142.396 28.0521 142.073 29.1667 141.719 30.375C141.385 31.5625 141.073 32.7708 140.781 34C140.49 35.2083 140.24 36.3854 140.031 37.5312C139.844 38.6771 139.75 39.6979 139.75 40.5938C139.75 41.7188 139.875 42.4792 140.125 42.875C140.375 43.2708 140.823 43.4688 141.469 43.4688C141.74 43.4688 142.073 43.3542 142.469 43.125C142.885 42.875 143.385 42.4062 143.969 41.7188C144.552 41.0104 145.24 40.0104 146.031 38.7188C146.844 37.4062 147.781 35.6875 148.844 33.5625L149.156 32.9062L150.438 33.875L150.125 34.5312C148.875 37.0312 147.76 39.0833 146.781 40.6875C145.802 42.2917 144.896 43.5625 144.062 44.5C143.25 45.4375 142.479 46.0938 141.75 46.4688C141.021 46.8229 140.292 47 139.562 47C138.333 47 137.333 46.5312 136.562 45.5938C135.792 44.6562 135.406 43.2083 135.406 41.25C135.406 40.1875 135.552 39.0833 135.844 37.9375C136.135 36.7917 136.5 35.6562 136.938 34.5312C137.375 33.3854 137.865 32.2604 138.406 31.1562C138.948 30.0521 139.458 29.0104 139.938 28.0312C140.438 27.0312 140.885 26.1042 141.281 25.25C141.677 24.3958 141.958 23.6458 142.125 23L141.938 22.8125C141.604 22.8125 141.156 22.9896 140.594 23.3438C140.031 23.6979 139.396 24.1042 138.688 24.5625C138 25 137.26 25.4167 136.469 25.8125C135.677 26.2083 134.875 26.4479 134.062 26.5312C134.021 26.8229 133.927 27.25 133.781 27.8125C133.656 28.375 133.479 29 133.25 29.6875C133.021 30.375 132.76 31.0833 132.469 31.8125C132.177 32.5417 131.875 33.2292 131.562 33.875L131.25 34.5312L129.969 33.5625ZM131.5 21.0312C131.312 21.0312 131.156 21.0938 131.031 21.2188C130.906 21.3438 130.844 21.4896 130.844 21.6562C130.844 21.9062 130.906 22.125 131.031 22.3125C131.156 22.4792 131.312 22.625 131.5 22.75C131.688 22.8542 131.875 22.9375 132.062 23C132.271 23.0417 132.448 23.0625 132.594 23.0625C132.594 22.4792 132.5 22 132.312 21.625C132.125 21.2292 131.854 21.0312 131.5 21.0312ZM170.25 47C168.979 47 167.875 46.7292 166.938 46.1875C166.021 45.6458 165.26 44.9167 164.656 44C164.052 43.0625 163.604 41.9896 163.312 40.7812C163.021 39.5729 162.875 38.2917 162.875 36.9375C162.875 35.75 162.99 34.5417 163.219 33.3125C163.448 32.0833 163.771 30.8958 164.188 29.75C164.625 28.5833 165.167 27.5 165.812 26.5C166.458 25.4792 167.198 24.5938 168.031 23.8438C168.865 23.0938 169.792 22.5 170.812 22.0625C171.854 21.625 172.969 21.4062 174.156 21.4062C175.51 21.4062 176.656 21.7083 177.594 22.3125C178.552 22.9167 179.323 23.6562 179.906 24.5312C179.927 20.5938 180.125 17.1146 180.5 14.0938C180.875 11.0729 181.396 8.54167 182.062 6.5C182.75 4.45833 183.562 2.91667 184.5 1.875C185.438 0.8125 186.469 0.28125 187.594 0.28125C187.99 0.28125 188.344 0.333333 188.656 0.4375C188.99 0.520833 189.26 0.6875 189.469 0.9375C189.698 1.1875 189.865 1.53125 189.969 1.96875C190.094 2.38542 190.156 2.92708 190.156 3.59375C190.156 4.96875 190.021 6.55208 189.75 8.34375C189.479 10.1146 189.094 12.0521 188.594 14.1562C188.094 16.2396 187.479 18.4688 186.75 20.8438C186.042 23.1979 185.25 25.6458 184.375 28.1875C184.396 30.4167 184.427 32.3438 184.469 33.9688C184.51 35.5938 184.562 36.9688 184.625 38.0938C184.708 39.2188 184.802 40.1354 184.906 40.8438C185.031 41.5521 185.167 42.1042 185.312 42.5C185.479 42.875 185.667 43.1354 185.875 43.2812C186.104 43.4062 186.354 43.4688 186.625 43.4688C187.104 43.4688 187.583 43.2604 188.062 42.8438C188.562 42.4062 189.094 41.7708 189.656 40.9375C190.219 40.0833 190.823 39.0417 191.469 37.8125C192.135 36.5833 192.865 35.1667 193.656 33.5625L194 32.9062L195.281 33.875L194.938 34.5312C193.729 36.9688 192.667 38.9896 191.75 40.5938C190.833 42.1771 189.99 43.4479 189.219 44.4062C188.469 45.3646 187.75 46.0417 187.062 46.4375C186.375 46.8125 185.656 47 184.906 47C184.177 47 183.542 46.8229 183 46.4688C182.479 46.0938 182.031 45.5208 181.656 44.75C181.281 43.9583 180.979 42.9583 180.75 41.75C180.521 40.5208 180.344 39.0521 180.219 37.3438C179.49 38.8021 178.74 40.125 177.969 41.3125C177.198 42.5 176.396 43.5208 175.562 44.375C174.75 45.2083 173.896 45.8542 173 46.3125C172.104 46.7708 171.188 47 170.25 47ZM174.781 23C173.635 23 172.635 23.3542 171.781 24.0625C170.927 24.75 170.219 25.6562 169.656 26.7812C169.094 27.8854 168.677 29.1354 168.406 30.5312C168.135 31.9271 168 33.3229 168 34.7188C168 35.8646 168.083 36.9688 168.25 38.0312C168.438 39.0729 168.708 40 169.062 40.8125C169.438 41.625 169.885 42.2708 170.406 42.75C170.927 43.2292 171.531 43.4688 172.219 43.4688C172.885 43.4688 173.531 43.3021 174.156 42.9688C174.802 42.6354 175.438 42.1042 176.062 41.375C176.688 40.625 177.323 39.6667 177.969 38.5C178.615 37.3125 179.302 35.875 180.031 34.1875C179.99 33.1875 179.958 32.125 179.938 31C179.917 29.8542 179.906 28.6354 179.906 27.3438C179.448 25.9896 178.75 24.9271 177.812 24.1562C176.896 23.3854 175.885 23 174.781 23ZM187.906 4.75C187.906 3.79167 187.792 3.125 187.562 2.75C187.354 2.375 187.104 2.1875 186.812 2.1875C186.312 2.1875 185.906 2.67708 185.594 3.65625C185.281 4.61458 185.031 5.91667 184.844 7.5625C184.677 9.20833 184.552 11.1146 184.469 13.2812C184.406 15.4479 184.375 17.7292 184.375 20.125V23.5625C185.021 21.4583 185.573 19.5625 186.031 17.875C186.49 16.1875 186.854 14.6146 187.125 13.1562C187.396 11.6979 187.594 10.2917 187.719 8.9375C187.844 7.58333 187.906 6.1875 187.906 4.75ZM193.719 33.5625L194.031 32.9062C194.344 32.2812 194.625 31.6354 194.875 30.9688C195.146 30.3021 195.375 29.6771 195.562 29.0938C195.75 28.4896 195.896 27.9583 196 27.5C196.104 27.0208 196.177 26.6562 196.219 26.4062C195.677 26.3438 195.156 26.2083 194.656 26C194.156 25.7917 193.719 25.5104 193.344 25.1562C192.969 24.8021 192.677 24.3854 192.469 23.9062C192.24 23.4271 192.125 22.8854 192.125 22.2812C192.125 21.8021 192.208 21.375 192.375 21C192.542 20.625 192.771 20.3125 193.062 20.0625C193.333 19.8125 193.646 19.625 194 19.5C194.333 19.3542 194.688 19.2812 195.062 19.2812C195.562 19.2812 196 19.3854 196.375 19.5938C196.75 19.8021 197.062 20.0833 197.312 20.4375C197.562 20.7708 197.75 21.1667 197.875 21.625C198 22.0625 198.062 22.5208 198.062 23C198.646 23 199.271 22.9167 199.938 22.75C200.625 22.5833 201.312 22.4062 202 22.2188C202.688 22.0104 203.365 21.8229 204.031 21.6562C204.698 21.4896 205.312 21.4062 205.875 21.4062C206.354 21.4062 206.74 21.5104 207.031 21.7188C207.323 21.9062 207.469 22.2292 207.469 22.6875C207.469 23.0208 207.365 23.5729 207.156 24.3438C206.969 25.1146 206.729 26.0104 206.438 27.0312C206.146 28.0521 205.823 29.1667 205.469 30.375C205.135 31.5625 204.823 32.7708 204.531 34C204.24 35.2083 203.99 36.3854 203.781 37.5312C203.594 38.6771 203.5 39.6979 203.5 40.5938C203.5 41.7188 203.625 42.4792 203.875 42.875C204.125 43.2708 204.573 43.4688 205.219 43.4688C205.49 43.4688 205.823 43.3542 206.219 43.125C206.635 42.875 207.135 42.4062 207.719 41.7188C208.302 41.0104 208.99 40.0104 209.781 38.7188C210.594 37.4062 211.531 35.6875 212.594 33.5625L212.906 32.9062L214.188 33.875L213.875 34.5312C212.625 37.0312 211.51 39.0833 210.531 40.6875C209.552 42.2917 208.646 43.5625 207.812 44.5C207 45.4375 206.229 46.0938 205.5 46.4688C204.771 46.8229 204.042 47 203.312 47C202.083 47 201.083 46.5312 200.312 45.5938C199.542 44.6562 199.156 43.2083 199.156 41.25C199.156 40.1875 199.302 39.0833 199.594 37.9375C199.885 36.7917 200.25 35.6562 200.688 34.5312C201.125 33.3854 201.615 32.2604 202.156 31.1562C202.698 30.0521 203.208 29.0104 203.688 28.0312C204.188 27.0312 204.635 26.1042 205.031 25.25C205.427 24.3958 205.708 23.6458 205.875 23L205.688 22.8125C205.354 22.8125 204.906 22.9896 204.344 23.3438C203.781 23.6979 203.146 24.1042 202.438 24.5625C201.75 25 201.01 25.4167 200.219 25.8125C199.427 26.2083 198.625 26.4479 197.812 26.5312C197.771 26.8229 197.677 27.25 197.531 27.8125C197.406 28.375 197.229 29 197 29.6875C196.771 30.375 196.51 31.0833 196.219 31.8125C195.927 32.5417 195.625 33.2292 195.312 33.875L195 34.5312L193.719 33.5625ZM195.25 21.0312C195.062 21.0312 194.906 21.0938 194.781 21.2188C194.656 21.3438 194.594 21.4896 194.594 21.6562C194.594 21.9062 194.656 22.125 194.781 22.3125C194.906 22.4792 195.062 22.625 195.25 22.75C195.438 22.8542 195.625 22.9375 195.812 23C196.021 23.0417 196.198 23.0625 196.344 23.0625C196.344 22.4792 196.25 22 196.062 21.625C195.875 21.2292 195.604 21.0312 195.25 21.0312ZM239.094 33.875L238.75 34.5312C238.042 35.9479 237.094 37.0833 235.906 37.9375C234.74 38.7708 233.469 39.3125 232.094 39.5625C231.719 40.625 231.229 41.6146 230.625 42.5312C230.042 43.4271 229.365 44.2083 228.594 44.875C227.844 45.5417 226.99 46.0625 226.031 46.4375C225.094 46.8125 224.073 47 222.969 47C221.365 47 219.917 46.6667 218.625 46C217.354 45.3125 216.271 44.3958 215.375 43.25C214.479 42.0833 213.792 40.7292 213.312 39.1875C212.833 37.625 212.594 35.9583 212.594 34.1875C212.594 32.6458 212.771 31.25 213.125 30C213.479 28.7292 213.927 27.6042 214.469 26.625C215.01 25.625 215.615 24.7604 216.281 24.0312C216.948 23.2812 217.604 22.6667 218.25 22.1875C218.896 21.7083 219.479 21.3542 220 21.125C220.542 20.875 220.948 20.75 221.219 20.75L221.625 21.8438C220.771 22.4688 220.01 23.3438 219.344 24.4688C218.76 25.4271 218.229 26.6979 217.75 28.2812C217.292 29.8646 217.062 31.8333 217.062 34.1875C217.062 35.625 217.198 37.0208 217.469 38.375C217.74 39.7292 218.135 40.9271 218.656 41.9688C219.177 43.0104 219.812 43.8438 220.562 44.4688C221.333 45.0938 222.198 45.4062 223.156 45.4062C224.469 45.4062 225.552 44.8854 226.406 43.8438C227.281 42.7812 227.927 41.3333 228.344 39.5C227.26 39.2708 226.229 38.8438 225.25 38.2188C224.271 37.5938 223.406 36.8229 222.656 35.9062C221.906 34.9688 221.302 33.8958 220.844 32.6875C220.406 31.4792 220.188 30.1667 220.188 28.75C220.188 27.5833 220.333 26.5625 220.625 25.6875C220.938 24.7917 221.344 24.0521 221.844 23.4688C222.344 22.8646 222.917 22.4167 223.562 22.125C224.229 21.8125 224.927 21.6562 225.656 21.6562C226.51 21.6562 227.385 21.9062 228.281 22.4062C229.177 22.8854 229.99 23.6146 230.719 24.5938C231.448 25.5521 232.042 26.7604 232.5 28.2188C232.958 29.6771 233.188 31.375 233.188 33.3125C233.188 34.0417 233.146 34.7604 233.062 35.4688C232.979 36.1771 232.854 36.8646 232.688 37.5312C233.688 37.2396 234.594 36.7708 235.406 36.125C236.24 35.4792 236.927 34.625 237.469 33.5625L237.812 32.9062L239.094 33.875ZM222.25 28.5C222.25 29.7292 222.417 30.8646 222.75 31.9062C223.104 32.9271 223.573 33.8333 224.156 34.625C224.74 35.3958 225.417 36.0417 226.188 36.5625C226.958 37.0833 227.781 37.4479 228.656 37.6562C228.76 37.0729 228.823 36.4688 228.844 35.8438C228.885 35.1979 228.906 34.5417 228.906 33.875C228.906 32.3958 228.792 31.0625 228.562 29.875C228.333 28.6667 228.031 27.6458 227.656 26.8125C227.281 25.9583 226.844 25.3021 226.344 24.8438C225.844 24.3854 225.333 24.1562 224.812 24.1562C224.104 24.1562 223.5 24.5417 223 25.3125C222.5 26.0625 222.25 27.125 222.25 28.5ZM241.938 27.2812C242.292 26.5104 242.719 25.7708 243.219 25.0625C243.719 24.3542 244.292 23.7292 244.938 23.1875C245.583 22.6458 246.302 22.2188 247.094 21.9062C247.885 21.5729 248.75 21.4062 249.688 21.4062C250.938 21.4062 252.042 21.7083 253 22.3125C253.958 22.8958 254.76 23.6875 255.406 24.6875C256.052 25.6667 256.542 26.8125 256.875 28.125C257.208 29.4167 257.375 30.7604 257.375 32.1562C257.375 34.3021 257.156 36.2396 256.719 37.9688C256.302 39.6771 255.729 41.1771 255 42.4688C256.125 41.6146 257.26 40.4792 258.406 39.0625C259.573 37.6458 260.719 35.8125 261.844 33.5625L262.156 32.9062L263.438 33.875L263.125 34.5312C262.167 36.4479 261.115 38.1771 259.969 39.7188C258.823 41.2604 257.604 42.5729 256.312 43.6562C255.042 44.7188 253.708 45.5417 252.312 46.125C250.917 46.7083 249.49 47 248.031 47C246.74 47 245.542 46.7188 244.438 46.1562C243.354 45.5938 242.521 44.8958 241.938 44.0625V58.8438C241.938 59.6354 241.875 60.2917 241.75 60.8125C241.646 61.3542 241.458 61.7812 241.188 62.0938C240.938 62.4271 240.594 62.6562 240.156 62.7812C239.719 62.9271 239.188 63 238.562 63C238.083 63 237.75 62.9167 237.562 62.75C237.375 62.6042 237.281 62.3646 237.281 62.0312C237.281 61.8854 237.302 61.625 237.344 61.25C237.385 60.875 237.427 60.3021 237.469 59.5312C237.51 58.7812 237.552 57.7812 237.594 56.5312C237.635 55.3021 237.656 53.7292 237.656 51.8125V34.5312C237.656 32.2188 237.646 30.375 237.625 29C237.604 27.6042 237.583 26.5208 237.562 25.75C237.542 24.9583 237.521 24.3958 237.5 24.0625C237.479 23.7292 237.469 23.4375 237.469 23.1875C237.469 22.9792 237.573 22.7708 237.781 22.5625C237.99 22.3542 238.26 22.1667 238.594 22C238.927 21.8333 239.281 21.6979 239.656 21.5938C240.052 21.4688 240.427 21.4062 240.781 21.4062C241.135 21.4062 241.417 21.5 241.625 21.6875C241.833 21.875 241.938 22.2083 241.938 22.6875V27.2812ZM248.031 24.1562C247.156 24.1562 246.344 24.4583 245.594 25.0625C244.865 25.6667 244.229 26.4479 243.688 27.4062C243.167 28.3438 242.75 29.3854 242.438 30.5312C242.146 31.6771 242 32.7917 242 33.875V37.4688C242 38.5938 242.146 39.6146 242.438 40.5312C242.75 41.4479 243.156 42.2292 243.656 42.875C244.156 43.5208 244.74 44.0208 245.406 44.375C246.094 44.7083 246.812 44.875 247.562 44.875C249.333 44.875 250.667 43.9583 251.562 42.125C252.479 40.2917 252.938 37.4167 252.938 33.5C252.938 32.1667 252.844 30.9271 252.656 29.7812C252.469 28.6354 252.177 27.6458 251.781 26.8125C251.385 25.9792 250.875 25.3333 250.25 24.875C249.625 24.3958 248.885 24.1562 248.031 24.1562Z" fill="black"/>
</svg>
